<?xml version="1.0" encoding="UTF-8" standalone="no"?>
<!-- Created with Inkscape (http://www.inkscape.org/) -->

<svg
   xmlns:dc="http://purl.org/dc/elements/1.1/"
   xmlns:cc="http://creativecommons.org/ns#"
   xmlns:rdf="http://www.w3.org/1999/02/22-rdf-syntax-ns#"
   xmlns:svg="http://www.w3.org/2000/svg"
   xmlns="http://www.w3.org/2000/svg"
   xmlns:sodipodi="http://sodipodi.sourceforge.net/DTD/sodipodi-0.dtd"
   xmlns:inkscape="http://www.inkscape.org/namespaces/inkscape"
   width="640"
   height="480"
   id="svg4136"
   version="1.1"
   inkscape:version="0.91 r13725"
   viewBox="0 0 640 480"
   sodipodi:docname="drawing.svg">
  <defs
     id="defs4138" />
  <sodipodi:namedview
     id="base"
     pagecolor="#ffffff"
     bordercolor="#666666"
     borderopacity="1.0"
     inkscape:pageopacity="0.0"
     inkscape:pageshadow="2"
     inkscape:zoom="0.77472527"
     inkscape:cx="123.15603"
     inkscape:cy="241.97596"
     inkscape:current-layer="layer1"
     inkscape:document-units="px"
     showgrid="false"
     inkscape:window-width="1280"
     inkscape:window-height="658"
     inkscape:window-x="-8"
     inkscape:window-y="-8"
     inkscape:window-maximized="1" />
  <metadata
     id="metadata4141">
    <rdf:RDF>
      <cc:Work
         rdf:about="">
        <dc:format>image/svg+xml</dc:format>
        <dc:type
           rdf:resource="http://purl.org/dc/dcmitype/StillImage" />
      </cc:Work>
    </rdf:RDF>
  </metadata>
  <g
     id="layer1"
     inkscape:label="Layer 1"
     inkscape:groupmode="layer">
    <path
       style="fill:#3ba0b7;fill-opacity:1;stroke:#0f00b9;stroke-width:4.71999979;stroke-linejoin:round;stroke-miterlimit:4;stroke-dasharray:none;stroke-opacity:1"
       d="M 328.19922 39.845703 A 210.39717 194.26241 0 0 0 283.10938 44.6875 C 277.16822 51.1604 271.17892 57.591175 265.22461 64.052734 C 281.02409 66.88579 297.3539 69.451399 310.54102 71.720703 C 383.25112 84.233024 372.35506 82.469944 449.55273 96.664062 C 452.44248 97.210412 455.25231 97.754009 458.12109 98.300781 C 456.86293 91.619168 455.61343 84.935203 454.39453 78.246094 A 210.39717 194.26241 0 0 0 328.19922 39.845703 z M 259.81836 50.916016 A 210.39717 194.26241 0 0 0 239.05859 58.857422 C 242.66259 59.668261 246.44603 60.45823 250.3418 61.234375 C 253.48676 57.78311 256.64678 54.344525 259.81836 50.916016 z M 221.32227 67.568359 A 210.39717 194.26241 0 0 0 125.14258 187.18555 C 128.62827 197.97065 132.15743 208.73444 135.69727 219.49609 C 148.50423 199.33733 160.70113 178.77684 174.30469 159.15039 C 191.3826 134.51134 209.064 110.24541 227.96875 86.978516 C 232.00304 82.013348 236.15493 77.14871 240.37695 72.34375 C 238.18676 71.874232 235.99166 71.406482 233.86133 70.916016 C 229.64555 69.945415 225.48074 68.76749 221.32227 67.568359 z M 254.98242 75.279297 C 249.29205 81.628306 243.70538 88.066621 238.32617 94.681641 C 219.60257 117.70675 202.083 141.71798 185.17773 166.10938 C 169.69794 188.44406 156.03499 211.98554 141.23047 234.77344 C 141.11878 234.94535 141.00624 235.11715 140.89453 235.28906 C 142.12344 239.01454 143.34605 242.74651 144.57422 246.4707 C 151.2004 266.56332 165.70946 309.88176 179.7793 351.84375 C 204.54777 358.28127 229.46437 364.2349 252.23242 369.00781 C 281.01918 375.04243 309.97824 380.28877 339.02539 384.91016 C 357.33044 387.82247 375.73472 390.05839 394.13281 392.33203 C 401.85385 380.49341 409.63388 368.69702 418.01953 357.32617 C 443.07512 323.35106 466.95163 293.10485 492.25977 263.46094 C 481.19564 213.06806 470.45774 162.60076 460.72266 111.93945 C 456.21795 111.0783 451.76707 110.21968 447.2168 109.35938 C 369.82003 95.128057 381.27407 96.992925 308.38867 84.447266 C 291.77743 81.587997 272.97044 78.677769 254.98242 75.279297 z M 469.53906 89.724609 C 470.2462 93.449089 470.97034 97.170098 471.6875 100.89258 C 475.80895 101.68252 479.96817 102.47086 484.06445 103.25391 A 210.39717 194.26241 0 0 0 469.53906 89.724609 z M 474.33594 114.53906 C 483.28289 160.20979 492.91667 205.74287 502.83398 251.21484 C 514.17304 238.21073 525.8473 225.23843 538.10742 212.03516 A 210.39717 194.26241 0 0 0 498.21875 119.07422 C 490.28943 117.582 482.32216 116.06936 474.33594 114.53906 z M 401.41406 117.12109 L 409.27148 121.5332 L 417.12695 125.94727 L 416.44727 137.85742 C 415.90572 147.35531 414.61827 153.16653 410.08594 166.55078 L 404.40234 183.33398 L 403.63867 215.61133 C 402.953 244.59554 403.0923 248.06748 405.00195 249.65234 C 407.98242 252.12591 407.72394 252.77477 402.68164 255.49023 C 398.9662 257.49112 397.99169 258.97074 396.74805 264.49609 C 395.92953 268.13264 395.04467 275.22129 394.7832 280.25 C 394.41528 287.32541 393.42338 291.07819 390.39258 296.83984 C 385.36152 306.40403 385.37185 312.04773 390.44531 323.60742 C 392.62902 328.58282 394.2275 332.82702 393.99609 333.03906 C 393.44224 333.54654 373.72102 337.58431 371.81641 337.58008 C 371.00498 337.57808 365.98463 334.67495 360.66016 331.12891 C 355.3357 327.58286 350.20261 324.67953 349.25391 324.67773 C 348.30522 324.67673 343.21321 325.92996 337.9375 327.46289 L 328.34375 330.25 L 314.75 324.88086 C 307.27278 321.92807 300.40178 319.51172 299.48242 319.51172 C 298.56305 319.51172 296.74315 320.69205 295.4375 322.13477 C 293.08535 324.73387 292.84441 324.54157 269.09961 301.10156 C 239.0728 271.46019 196.29137 231.6286 192.13086 229.43945 C 190.40123 228.52936 188.98633 227.47836 188.98633 227.10547 C 188.98633 224.28973 192.11 214.95898 193.05273 214.95898 C 195.91362 214.95898 204.01361 219.17351 205.91016 221.64844 L 207.99219 224.36328 L 214.04102 220.20117 C 218.8237 216.9106 220.47228 216.3532 221.9082 217.54492 C 224.54267 219.73133 225.57564 218.61338 229.54102 209.2832 C 232.91625 201.34158 233.26435 200.97204 236.29688 202.125 C 242.9581 204.65759 243.25816 203.84037 239.24219 194.10156 C 237.14663 189.01977 235.59769 184.69528 235.80078 184.49219 C 236.00387 184.2891 241.36816 183.47885 247.7207 182.68945 C 254.07324 181.90006 259.57505 180.78833 259.94727 180.2207 C 264.86073 172.72767 270.91708 164.61914 271.59961 164.61914 C 272.07597 164.61914 275.757 166.97516 279.7793 169.85547 C 283.8016 172.73577 287.60703 174.77443 288.23438 174.38672 C 288.86169 173.99901 289.75656 171.64138 290.22461 169.14648 C 291.00521 164.98555 291.89791 164.22989 301.01953 160.01953 C 310.88723 155.4648 311.03765 155.31994 320.54102 141.30664 C 325.80844 133.53953 330.80033 127.18555 331.63281 127.18555 C 332.46528 127.18555 338.77006 129.53466 345.64258 132.40625 C 352.51511 135.27785 358.63871 137.31845 359.25195 136.93945 C 359.86519 136.56045 360.74907 134.21903 361.21484 131.73633 L 362.06055 127.2207 L 373.52148 128.03516 L 384.98047 128.84766 L 393.19727 122.98438 L 401.41406 117.12109 z M 120.16602 213.62305 A 210.39717 194.26241 0 0 0 118.75391 234.68945 A 210.39717 194.26241 0 0 0 119.32812 244.69141 C 121.79256 240.94175 124.23935 237.18515 126.68945 233.42969 C 124.46255 226.67528 122.06154 219.39738 120.16602 213.62305 z M 539.34766 229.7207 C 527.92241 242.19308 516.96624 254.53032 506.27344 266.94727 C 510.13035 284.52383 514.01339 302.09414 517.91406 319.66016 A 210.39717 194.26241 0 0 0 539.54688 234.10547 L 539.54297 232.9375 A 210.39717 194.26241 0 0 0 539.34766 229.7207 z M 131.86133 249.13086 C 128.46886 254.30514 125.06188 259.47297 121.62891 264.625 A 210.39717 194.26241 0 0 0 158.04492 346.05078 C 160.31152 346.66864 162.56267 347.29211 164.8418 347.9043 C 151.49493 308.08444 138.34127 268.78497 132.29883 250.46094 C 132.12497 249.9337 132.03311 249.65177 131.86133 249.13086 z M 495.73828 279.30273 C 473.03412 306.24153 451.31496 333.90631 428.73242 364.52539 C 421.62163 374.16673 414.94546 384.11504 408.36914 394.13281 C 411.34127 394.5112 414.31516 394.87453 417.28516 395.26758 C 420.62995 395.68877 433.03882 397.25078 441.07812 398.25586 A 210.39717 194.26241 0 0 0 508.26758 335.74805 C 504.08275 316.93631 499.89344 298.12461 495.73828 279.30273 z M 184.66797 366.43164 C 185.9919 370.37891 187.33964 374.4068 188.63086 378.25586 A 210.39717 194.26241 0 0 0 329.46484 428.36914 A 210.39717 194.26241 0 0 0 373.22461 423.97266 C 375.11657 421.15978 375.09781 421.18825 378.32617 416.38281 C 381.00538 412.3948 383.64595 408.37906 386.27734 404.35742 C 369.72176 402.30807 353.169 400.23142 336.69727 397.60742 C 307.42565 392.94437 278.24361 387.64821 249.23438 381.5625 C 228.78163 377.27182 206.75655 372.0693 184.66797 366.43164 z M 400.51758 406.14258 C 397.59116 410.63299 394.66205 415.12061 391.69727 419.58398 A 210.39717 194.26241 0 0 0 420.69922 408.70508 C 419.7223 408.58274 416.3038 408.15436 415.58984 408.06445 C 410.56914 407.39898 405.54351 406.77227 400.51758 406.14258 z "
       id="path4695" />
    <path
       style="fill:#a33bb7;fill-opacity:1;stroke:#0f00b9;stroke-width:6.09248209;stroke-linejoin:round;stroke-miterlimit:4;stroke-dasharray:none;stroke-opacity:1"
       d="m 132.31219,199.76107 -4.26532,-13.23916 2.80786,-8.39007 c 8.14506,-24.33793 23.66227,-49.93017 42.23927,-69.66442 10.68092,-11.346288 30.2819,-27.2376 42.23927,-34.245082 5.56352,-3.26044 6.18781,-3.350914 12.84382,-1.861364 l 6.99606,1.565651 -10.63804,13.056509 C 200.38482,116.62378 162.93384,169.79051 141.80649,204.42761 l -5.22898,8.57262 -4.26532,-13.23916 z"
       id="path4968"
       inkscape:connector-curvature="0" />
    <path
       style="fill:#3bb768;fill-opacity:1;stroke:#0f00b9;stroke-width:6.09248209;stroke-linejoin:round;stroke-miterlimit:4;stroke-dasharray:none;stroke-opacity:1"
       d="M 500.82972,228.79903 C 489.56151,176.23065 478.11794,119.6191 478.65193,119.08511 c 1.38184,-1.38183 18.0966,2.51576 19.68657,4.59056 10.58547,13.81335 22.05332,34.9496 28.14549,51.87461 3.30977,9.19509 8.34302,29.33421 8.40297,33.62215 0.0154,1.09892 -6.71753,9.52126 -14.96198,18.71631 -8.24446,9.19505 -15.11969,16.86532 -15.2783,17.04504 -0.15861,0.17972 -1.87624,-7.08092 -3.81696,-16.13475 z"
       id="path4970"
       inkscape:connector-curvature="0" />
    <path
       style="fill:#f2bd00;fill-opacity:1;stroke:#0f00b9;stroke-width:6.09248209;stroke-linejoin:round;stroke-miterlimit:4;stroke-dasharray:none;stroke-opacity:1"
       d="m 309.54664,424.63899 c -15.48254,-1.49013 -34.89057,-5.51034 -49.78007,-10.31152 -24.38436,-7.86284 -65.69723,-31.54296 -69.46767,-39.81818 -0.77536,-1.70171 -1.23129,-3.27249 -1.01317,-3.4906 0.21811,-0.21811 9.72045,1.84865 21.11632,4.5928 43.30039,10.42681 104.98642,22.04293 150.5702,28.35391 10.46596,1.44899 19.34557,2.63453 19.7325,2.63453 0.38692,0 -1.59941,3.39119 -4.41409,7.53598 l -5.11758,7.53597 -10.74257,1.45591 c -15.86156,2.14967 -37.55585,2.79397 -50.88387,1.5112 z"
       id="path4972"
       inkscape:connector-curvature="0" />
    <path
       style="fill:#f200d1;fill-opacity:1;stroke:#0f00b9;stroke-width:6.09248209;stroke-linejoin:round;stroke-miterlimit:4;stroke-dasharray:none;stroke-opacity:1"
       d="m 423.9078,393.37733 c -5.32447,-0.69271 -9.88256,-1.4458 -10.12909,-1.67353 -1.2919,-1.19339 40.24373,-57.01684 65.60541,-88.17298 l 14.81675,-18.20197 5.51255,24.75363 5.51255,24.75364 -3.07118,4.58048 c -10.59419,15.80065 -31.1686,35.616 -50.48373,48.62121 -11.16472,7.5174 -11.10758,7.50641 -27.76326,5.33952 z"
       id="path4974"
       inkscape:connector-curvature="0" />
    <path
       style="fill:#0c00f2;fill-opacity:1;stroke:#0f00b9;stroke-width:6.09248209;stroke-linejoin:round;stroke-miterlimit:4;stroke-dasharray:none;stroke-opacity:1"
       d="M 409.06383,86.480396 C 387.05603,82.35154 347.55816,75.335733 321.29078,70.889713 295.0234,66.443695 273.11055,62.456065 272.59554,62.028315 c -0.515,-0.42775 2.09883,-4.035954 5.80851,-8.018231 l 6.74489,-7.240504 11.61702,-1.762132 c 14.57313,-2.210531 52.27624,-2.193294 65.18439,0.0298 31.56686,5.436575 59.13645,15.510662 82.04872,29.981066 7.58892,4.792833 7.91125,5.218441 9.15682,12.090263 1.22957,6.783607 1.16326,7.116754 -1.39344,7.000692 -1.47643,-0.06702 -20.69082,-3.500018 -42.69862,-7.628875 z"
       id="path4976"
       inkscape:connector-curvature="0" />
    <path
       style="fill:#79beff;fill-opacity:1;stroke:#0f00b9;stroke-width:6.09248209;stroke-linejoin:round;stroke-miterlimit:4;stroke-dasharray:none;stroke-opacity:1"
       d="m 362.48294,328.74914 c -4.96626,-3.06189 -9.99475,-5.93747 -11.17445,-6.39016 -1.17968,-0.45269 -6.81084,0.3765 -12.51366,1.84264 l -10.36878,2.6657 -14.74683,-5.46483 c -13.83943,-5.12858 -14.92583,-5.33947 -17.65593,-3.42723 -2.84491,1.99265 -3.44703,1.51904 -27.29155,-21.46673 -33.45279,-32.24803 -61.00884,-58.00126 -69.03592,-64.51934 -6.50649,-5.28336 -7.68137,-7.56103 -6.06837,-11.76444 0.67862,-1.76844 1.34458,-1.71128 5.64932,0.48483 2.684,1.36928 5.22385,3.38562 5.64409,4.48075 1.07057,2.78986 3.38769,2.48753 8.72342,-1.13819 2.53289,-1.72114 6.58847,-3.31848 9.0124,-3.54965 3.91604,-0.37346 4.83866,-1.2523 8.27949,-7.88656 3.26252,-6.29047 4.31355,-7.35784 6.67403,-6.77775 7.08426,1.74097 8.63753,-2.73772 4.38783,-12.65188 -2.66416,-6.21522 -2.09154,-7.30978 3.82415,-7.30978 1.32685,0 5.3789,-0.63619 9.00457,-1.41375 5.93124,-1.27203 7.1351,-2.15998 12.00838,-8.85731 l 5.41628,-7.44355 6.42488,4.33958 c 8.6625,5.85093 11.76194,5.72667 13.64155,-0.54691 1.28883,-4.3017 2.61399,-5.47846 11.07319,-9.83308 8.9412,-4.60274 10.23431,-5.82831 18.60232,-17.63059 4.94623,-6.97619 9.42545,-12.93813 9.9538,-13.24874 0.52836,-0.31062 5.89789,1.36275 11.93228,3.71858 14.76889,5.76579 17.44366,5.7417 19.39625,-0.1747 l 1.52552,-4.62239 10.51429,0.85778 10.5143,0.85778 7.32277,-5.27085 c 4.02754,-2.89897 7.80307,-5.27247 8.39008,-5.27444 0.587,-0.002 3.59548,1.30494 6.6855,2.90426 l 5.6182,2.90784 -0.62471,10.97163 c -0.47607,8.36076 -1.96284,14.96473 -6.24784,27.75177 l -5.62313,16.78014 -0.0158,34.85107 c -0.0154,34.08616 -0.0765,34.90043 -2.78901,37.10058 -3.08565,2.5029 -4.97231,9.39034 -6.81988,24.89666 -0.72644,6.09688 -2.58843,13.2734 -4.52114,17.42553 -4.1691,8.95665 -4.19222,15.91434 -0.0865,26.01873 1.77365,4.36497 3.08056,8.04045 2.90425,8.16776 -0.54421,0.39298 -15.50682,3.20634 -17.05261,3.20634 -0.80165,0 -5.52085,-2.5052 -10.4871,-5.5671 z"
       id="path4978"
       inkscape:connector-curvature="0" />
  </g>
</svg>
