<?xml version="1.0" encoding="UTF-8" standalone="no"?>
<!-- Created with Inkscape (http://www.inkscape.org/) -->

<svg
   xmlns:dc="http://purl.org/dc/elements/1.1/"
   xmlns:cc="http://creativecommons.org/ns#"
   xmlns:rdf="http://www.w3.org/1999/02/22-rdf-syntax-ns#"
   xmlns:svg="http://www.w3.org/2000/svg"
   xmlns="http://www.w3.org/2000/svg"
   xmlns:sodipodi="http://sodipodi.sourceforge.net/DTD/sodipodi-0.dtd"
   xmlns:inkscape="http://www.inkscape.org/namespaces/inkscape"
   width="640"
   height="480"
   id="svg4136"
   version="1.1"
   inkscape:version="0.91 r13725"
   viewBox="0 0 640 480"
   sodipodi:docname="drawing1.svg">
  <defs
     id="defs4138" />
  <sodipodi:namedview
     id="base"
     pagecolor="#ffffff"
     bordercolor="#666666"
     borderopacity="1.0"
     inkscape:pageopacity="0.0"
     inkscape:pageshadow="2"
     inkscape:zoom="0.77472527"
     inkscape:cx="123.15603"
     inkscape:cy="241.97596"
     inkscape:current-layer="layer1"
     inkscape:document-units="px"
     showgrid="false"
     inkscape:window-width="1280"
     inkscape:window-height="658"
     inkscape:window-x="-8"
     inkscape:window-y="-8"
     inkscape:window-maximized="1" />
  <metadata
     id="metadata4141">
    <rdf:RDF>
      <cc:Work
         rdf:about="">
        <dc:format>image/svg+xml</dc:format>
        <dc:type
           rdf:resource="http://purl.org/dc/dcmitype/StillImage" />
        <dc:title></dc:title>
      </cc:Work>
    </rdf:RDF>
  </metadata>
  <g
     id="layer1"
     inkscape:label="Layer 1"
     inkscape:groupmode="layer">
    <path
       style="fill:#3ba0b7;fill-opacity:1;stroke:#0f00b9;stroke-width:4.71999979;stroke-linejoin:round;stroke-miterlimit:4;stroke-dasharray:none;stroke-opacity:1"
       d="M 328.19901,39.845939 A 210.39717,194.26241 0 0 0 118.7537,234.68969 210.39717,194.26241 0 0 0 329.46464,428.36938 210.39717,194.26241 0 0 0 539.54667,234.1057 l -0.004,-1.16796 A 210.39717,194.26241 0 0 0 328.19901,39.845939 Z m 73.21485,77.275391 7.85742,4.41211 7.85547,4.41406 -0.67969,11.91016 c -0.54155,9.49789 -1.829,15.30911 -6.36133,28.69336 l -5.68359,16.7832 -0.76367,32.27734 c -0.68567,28.98421 -0.54637,32.45616 1.36328,34.04102 2.98047,2.47357 2.72199,3.12243 -2.32031,5.83789 -3.71544,2.00089 -4.68996,3.48051 -5.9336,9.00586 -0.81852,3.63655 -1.70337,10.7252 -1.96484,15.75391 -0.36792,7.07541 -1.35983,10.82819 -4.39063,16.58984 -5.03106,9.56419 -5.02076,15.20789 0.0527,26.76758 2.18371,4.9754 3.78219,9.2196 3.55078,9.43164 -0.55385,0.50748 -20.27508,4.54524 -22.17969,4.54101 -0.81143,-0.002 -5.83178,-2.90513 -11.15625,-6.45117 -5.32446,-3.54605 -10.45755,-6.44937 -11.40625,-6.45117 -0.94869,-0.001 -6.04069,1.25223 -11.3164,2.78516 l -9.59375,2.78711 -13.59375,-5.36914 c -7.47722,-2.95279 -14.34822,-5.36915 -15.26758,-5.36915 -0.91937,0 -2.73927,1.18033 -4.04492,2.62305 -2.35215,2.5991 -2.5931,2.40681 -26.3379,-21.0332 -30.02681,-29.64137 -72.80823,-69.47296 -76.96874,-71.66211 -1.72963,-0.91009 -3.14454,-1.9611 -3.14454,-2.33399 0,-2.81574 3.12368,-12.14648 4.06641,-12.14648 2.86089,0 10.96087,4.21452 12.85742,6.68945 l 2.08203,2.71485 6.04883,-4.16211 c 4.78268,-3.29057 6.43127,-3.84797 7.86719,-2.65625 2.63447,2.18641 3.66743,1.06846 7.63281,-8.26172 3.37523,-7.94162 3.72334,-8.31116 6.75586,-7.1582 6.66122,2.53259 6.96128,1.71537 2.94531,-8.02344 -2.09556,-5.08179 -3.64449,-9.40629 -3.4414,-9.60938 0.20309,-0.20309 5.56738,-1.01333 11.91992,-1.80273 6.35254,-0.78939 11.85434,-1.90112 12.22656,-2.46875 4.91346,-7.49303 10.96981,-15.60156 11.65234,-15.60156 0.47636,0 4.15739,2.35601 8.17969,5.23632 4.0223,2.8803 7.82775,4.91896 8.45508,4.53125 0.62733,-0.38771 1.52218,-2.74533 1.99023,-5.24023 0.7806,-4.16093 1.67331,-4.91659 10.79493,-9.12695 9.8677,-4.55473 10.01811,-4.69959 19.52148,-18.71289 5.26742,-7.76711 10.25932,-14.1211 11.0918,-14.1211 0.83247,0 7.13724,2.34912 14.00976,5.22071 6.87253,2.8716 12.99614,4.9122 13.60938,4.5332 0.61324,-0.379 1.49712,-2.72043 1.96289,-5.20313 l 0.8457,-4.51562 11.46094,0.81445 11.45898,0.8125 8.2168,-5.86328 8.2168,-5.86328 z"
       id="path4695"
       inkscape:connector-curvature="0" />
  </g>
</svg>
