<?xml version="1.0" encoding="UTF-8" standalone="no"?>
<!DOCTYPE svg PUBLIC "-//W3C//DTD SVG 20010904//EN" "http://www.w3.org/TR/2001/REC-SVG-20010904/DTD/svg10.dtd">
<svg version="1.0" xmlns="http://www.w3.org/2000/svg" width="900.000000pt" height="900.000000pt" viewBox="0 0 900.000000 900.000000" preserveAspectRatio="xMidYMid meet">
<metadata>
Created by potrace 1.10, written by Peter Selinger 2001-2011
</metadata>
<g transform="translate(0.000000,900.000000) scale(0.100000,-0.100000)" fill="#ffffff" stroke="none">
<path d="M4894 8983 c-7 -12 -33 -18 -100 -24 -49 -4 -105 -12 -124 -18 -19 -6 -50 -11 -68 -11 -18 0 -42 -5 -53 -11 -11 -6 -41 -14 -67 -19 -53 -9 -87 -20 -186 -61 -38 -16 -74 -29 -81 -29 -7 0 -18 -7 -25 -15 -7 -8 -20 -15 -29 -15 -9 0 -56 -24 -104 -53 -49 -28 -98 -57 -109 -63 -32 -19 -148 -115 -197 -165 -81 -81 -156 -178 -228 -295 -23 -37 -70 -140 -98 -214 -9 -25 -21 -53 -26 -63 -6 -10 -14 -37 -18 -60 -5 -23 -14 -55 -19 -72 -46 -135 -53 -253 -58 -1030 -4 -496 -9 -733 -16 -742 -8 -10 -104 -13 -449 -13 l-439 0 -5 -22 c-3 -13 -4 -354 -3 -758 l3 -735 450 -5 450 -5 3 -2242 2 -2243 930 0 930 0 2 2243 3 2242 619 5 618 5 19 70 c10 39 19 96 19 128 0 32 7 86 14 120 15 63 33 194 47 347 4 47 12 105 18 130 6 25 10 84 11 132 0 48 5 99 10 113 6 15 15 104 20 198 6 94 16 191 22 215 8 33 8 46 -1 55 -9 9 -191 13 -709 17 l-697 5 0 550 0 550 37 60 c63 105 184 196 287 218 25 6 280 13 566 16 l520 6 3 788 2 787 -842 0 c-775 0 -844 -1 -854 -17z"/>
</g>
</svg>
