<?xml version="1.0" encoding="UTF-8" standalone="no"?>
<!-- Created with Inkscape (http://www.inkscape.org/) -->

<svg
   xmlns:dc="http://purl.org/dc/elements/1.1/"
   xmlns:cc="http://creativecommons.org/ns#"
   xmlns:rdf="http://www.w3.org/1999/02/22-rdf-syntax-ns#"
   xmlns:svg="http://www.w3.org/2000/svg"
   xmlns="http://www.w3.org/2000/svg"
   xmlns:sodipodi="http://sodipodi.sourceforge.net/DTD/sodipodi-0.dtd"
   xmlns:inkscape="http://www.inkscape.org/namespaces/inkscape"
   width="640"
   height="480"
   id="svg4136"
   version="1.1"
   inkscape:version="0.91 r13725"
   viewBox="0 0 640 480"
   sodipodi:docname="logo.svg">
  <defs
     id="defs4138" />
  <sodipodi:namedview
     id="base"
     pagecolor="#ffffff"
     bordercolor="#666666"
     borderopacity="1.0"
     inkscape:pageopacity="0.0"
     inkscape:pageshadow="2"
     inkscape:zoom="0.77472527"
     inkscape:cx="365.5551"
     inkscape:cy="184.34823"
     inkscape:current-layer="layer1"
     inkscape:document-units="px"
     showgrid="false"
     inkscape:window-width="1280"
     inkscape:window-height="658"
     inkscape:window-x="-8"
     inkscape:window-y="-8"
     inkscape:window-maximized="1"
     showguides="false" />
  <metadata
     id="metadata4141">
    <rdf:RDF>
      <cc:Work
         rdf:about="">
        <dc:format>image/svg+xml</dc:format>
        <dc:type
           rdf:resource="http://purl.org/dc/dcmitype/StillImage" />
      </cc:Work>
    </rdf:RDF>
  </metadata>
  <g
     id="layer1"
     inkscape:label="Layer 1"
     inkscape:groupmode="layer">
    <path
       style="fill:#3ba0b7;fill-opacity:1;stroke:#0f00b9;stroke-width:4.71999979;stroke-linejoin:round;stroke-miterlimit:4;stroke-dasharray:none;stroke-opacity:1"
       d="M 328.19922 39.845703 A 210.39717 194.26241 0 0 0 283.10938 44.6875 C 277.16822 51.1604 271.17892 57.591175 265.22461 64.052734 C 281.02409 66.88579 297.3539 69.451399 310.54102 71.720703 C 383.25112 84.233024 372.35506 82.469944 449.55273 96.664062 C 452.44248 97.210412 455.25231 97.754009 458.12109 98.300781 C 456.86293 91.619168 455.61343 84.935203 454.39453 78.246094 A 210.39717 194.26241 0 0 0 328.19922 39.845703 z M 259.81836 50.916016 A 210.39717 194.26241 0 0 0 239.05859 58.857422 C 242.66259 59.668261 246.44603 60.45823 250.3418 61.234375 C 253.48676 57.78311 256.64678 54.344525 259.81836 50.916016 z M 221.32227 67.568359 A 210.39717 194.26241 0 0 0 125.14258 187.18555 C 128.62827 197.97065 132.15743 208.73444 135.69727 219.49609 C 148.50423 199.33733 160.70113 178.77684 174.30469 159.15039 C 191.3826 134.51134 209.064 110.24541 227.96875 86.978516 C 232.00304 82.013348 236.15493 77.14871 240.37695 72.34375 C 238.18676 71.874232 235.99166 71.406482 233.86133 70.916016 C 229.64555 69.945415 225.48074 68.76749 221.32227 67.568359 z M 254.98242 75.279297 C 249.29205 81.628306 243.70538 88.066621 238.32617 94.681641 C 219.60257 117.70675 202.083 141.71798 185.17773 166.10938 C 169.69794 188.44406 156.03499 211.98554 141.23047 234.77344 C 141.11878 234.94535 141.00624 235.11715 140.89453 235.28906 C 142.12344 239.01454 143.34605 242.74651 144.57422 246.4707 C 151.2004 266.56332 165.70946 309.88176 179.7793 351.84375 C 204.54777 358.28127 229.46437 364.2349 252.23242 369.00781 C 281.01918 375.04243 309.97824 380.28877 339.02539 384.91016 C 357.33044 387.82247 375.73472 390.05839 394.13281 392.33203 C 401.85385 380.49341 409.63388 368.69702 418.01953 357.32617 C 443.07512 323.35106 466.95163 293.10485 492.25977 263.46094 C 481.19564 213.06806 470.45774 162.60076 460.72266 111.93945 C 456.21795 111.0783 451.76707 110.21968 447.2168 109.35938 C 369.82003 95.128057 381.27407 96.992925 308.38867 84.447266 C 291.77743 81.587997 272.97044 78.677769 254.98242 75.279297 z M 469.53906 89.724609 C 470.2462 93.449089 470.97034 97.170098 471.6875 100.89258 C 475.80895 101.68252 479.96817 102.47086 484.06445 103.25391 A 210.39717 194.26241 0 0 0 469.53906 89.724609 z M 474.33594 114.53906 C 483.28289 160.20979 492.91667 205.74287 502.83398 251.21484 C 514.17304 238.21073 525.8473 225.23843 538.10742 212.03516 A 210.39717 194.26241 0 0 0 498.21875 119.07422 C 490.28943 117.582 482.32216 116.06936 474.33594 114.53906 z M 401.41406 117.12109 L 409.27148 121.5332 L 417.12695 125.94727 L 416.44727 137.85742 C 415.90572 147.35531 414.61827 153.16653 410.08594 166.55078 L 404.40234 183.33398 L 403.63867 215.61133 C 402.953 244.59554 403.0923 248.06748 405.00195 249.65234 C 407.98242 252.12591 407.72394 252.77477 402.68164 255.49023 C 398.9662 257.49112 397.99169 258.97074 396.74805 264.49609 C 395.92953 268.13264 395.04467 275.22129 394.7832 280.25 C 394.41528 287.32541 393.42338 291.07819 390.39258 296.83984 C 385.36152 306.40403 385.37185 312.04773 390.44531 323.60742 C 392.62902 328.58282 394.2275 332.82702 393.99609 333.03906 C 393.44224 333.54654 373.72102 337.58431 371.81641 337.58008 C 371.00498 337.57808 365.98463 334.67495 360.66016 331.12891 C 355.3357 327.58286 350.20261 324.67953 349.25391 324.67773 C 348.30522 324.67673 343.21321 325.92996 337.9375 327.46289 L 328.34375 330.25 L 314.75 324.88086 C 307.27278 321.92807 300.40178 319.51172 299.48242 319.51172 C 298.56305 319.51172 296.74315 320.69205 295.4375 322.13477 C 293.08535 324.73387 292.84441 324.54157 269.09961 301.10156 C 239.0728 271.46019 196.29137 231.6286 192.13086 229.43945 C 190.40123 228.52936 188.98633 227.47836 188.98633 227.10547 C 188.98633 224.28973 192.11 214.95898 193.05273 214.95898 C 195.91362 214.95898 204.01361 219.17351 205.91016 221.64844 L 207.99219 224.36328 L 214.04102 220.20117 C 218.8237 216.9106 220.47228 216.3532 221.9082 217.54492 C 224.54267 219.73133 225.57564 218.61338 229.54102 209.2832 C 232.91625 201.34158 233.26435 200.97204 236.29688 202.125 C 242.9581 204.65759 243.25816 203.84037 239.24219 194.10156 C 237.14663 189.01977 235.59769 184.69528 235.80078 184.49219 C 236.00387 184.2891 241.36816 183.47885 247.7207 182.68945 C 254.07324 181.90006 259.57505 180.78833 259.94727 180.2207 C 264.86073 172.72767 270.91708 164.61914 271.59961 164.61914 C 272.07597 164.61914 275.757 166.97516 279.7793 169.85547 C 283.8016 172.73577 287.60703 174.77443 288.23438 174.38672 C 288.86169 173.99901 289.75656 171.64138 290.22461 169.14648 C 291.00521 164.98555 291.89791 164.22989 301.01953 160.01953 C 310.88723 155.4648 311.03765 155.31994 320.54102 141.30664 C 325.80844 133.53953 330.80033 127.18555 331.63281 127.18555 C 332.46528 127.18555 338.77006 129.53466 345.64258 132.40625 C 352.51511 135.27785 358.63871 137.31845 359.25195 136.93945 C 359.86519 136.56045 360.74907 134.21903 361.21484 131.73633 L 362.06055 127.2207 L 373.52148 128.03516 L 384.98047 128.84766 L 393.19727 122.98438 L 401.41406 117.12109 z M 120.16602 213.62305 A 210.39717 194.26241 0 0 0 118.75391 234.68945 A 210.39717 194.26241 0 0 0 119.32812 244.69141 C 121.79256 240.94175 124.23935 237.18515 126.68945 233.42969 C 124.46255 226.67528 122.06154 219.39738 120.16602 213.62305 z M 539.34766 229.7207 C 527.92241 242.19308 516.96624 254.53032 506.27344 266.94727 C 510.13035 284.52383 514.01339 302.09414 517.91406 319.66016 A 210.39717 194.26241 0 0 0 539.54688 234.10547 L 539.54297 232.9375 A 210.39717 194.26241 0 0 0 539.34766 229.7207 z M 131.86133 249.13086 C 128.46886 254.30514 125.06188 259.47297 121.62891 264.625 A 210.39717 194.26241 0 0 0 158.04492 346.05078 C 160.31152 346.66864 162.56267 347.29211 164.8418 347.9043 C 151.49493 308.08444 138.34127 268.78497 132.29883 250.46094 C 132.12497 249.9337 132.03311 249.65177 131.86133 249.13086 z M 495.73828 279.30273 C 473.03412 306.24153 451.31496 333.90631 428.73242 364.52539 C 421.62163 374.16673 414.94546 384.11504 408.36914 394.13281 C 411.34127 394.5112 414.31516 394.87453 417.28516 395.26758 C 420.62995 395.68877 433.03882 397.25078 441.07812 398.25586 A 210.39717 194.26241 0 0 0 508.26758 335.74805 C 504.08275 316.93631 499.89344 298.12461 495.73828 279.30273 z M 184.66797 366.43164 C 185.9919 370.37891 187.33964 374.4068 188.63086 378.25586 A 210.39717 194.26241 0 0 0 329.46484 428.36914 A 210.39717 194.26241 0 0 0 373.22461 423.97266 C 375.11657 421.15978 375.09781 421.18825 378.32617 416.38281 C 381.00538 412.3948 383.64595 408.37906 386.27734 404.35742 C 369.72176 402.30807 353.169 400.23142 336.69727 397.60742 C 307.42565 392.94437 278.24361 387.64821 249.23438 381.5625 C 228.78163 377.27182 206.75655 372.0693 184.66797 366.43164 z M 400.51758 406.14258 C 397.59116 410.63299 394.66205 415.12061 391.69727 419.58398 A 210.39717 194.26241 0 0 0 420.69922 408.70508 C 419.7223 408.58274 416.3038 408.15436 415.58984 408.06445 C 410.56914 407.39898 405.54351 406.77227 400.51758 406.14258 z "
       id="path4695" />
    <path
       style="fill:#a33bb7;fill-opacity:1;stroke:#0f00b9;stroke-width:6.09248209;stroke-linejoin:round;stroke-miterlimit:4;stroke-dasharray:none;stroke-opacity:1"
       d="m 132.31219,199.76107 -4.26532,-13.23916 2.80786,-8.39007 c 8.14506,-24.33793 23.66227,-49.93017 42.23927,-69.66442 10.68092,-11.346288 30.2819,-27.2376 42.23927,-34.245082 5.56352,-3.26044 6.18781,-3.350914 12.84382,-1.861364 l 6.99606,1.565651 -10.63804,13.056509 C 200.38482,116.62378 162.93384,169.79051 141.80649,204.42761 l -5.22898,8.57262 -4.26532,-13.23916 z"
       id="path4968"
       inkscape:connector-curvature="0" />
    <path
       style="fill:#3bb768;fill-opacity:1;stroke:#0f00b9;stroke-width:6.09248209;stroke-linejoin:round;stroke-miterlimit:4;stroke-dasharray:none;stroke-opacity:1"
       d="M 500.82972,228.79903 C 489.56151,176.23065 478.11794,119.6191 478.65193,119.08511 c 1.38184,-1.38183 18.0966,2.51576 19.68657,4.59056 10.58547,13.81335 22.05332,34.9496 28.14549,51.87461 3.30977,9.19509 8.34302,29.33421 8.40297,33.62215 0.0154,1.09892 -6.71753,9.52126 -14.96198,18.71631 -8.24446,9.19505 -15.11969,16.86532 -15.2783,17.04504 -0.15861,0.17972 -1.87624,-7.08092 -3.81696,-16.13475 z"
       id="path4970"
       inkscape:connector-curvature="0" />
    <path
       style="fill:#f2bd00;fill-opacity:1;stroke:#0f00b9;stroke-width:6.09248209;stroke-linejoin:round;stroke-miterlimit:4;stroke-dasharray:none;stroke-opacity:1"
       d="m 309.54664,424.63899 c -15.48254,-1.49013 -34.89057,-5.51034 -49.78007,-10.31152 -24.38436,-7.86284 -65.69723,-31.54296 -69.46767,-39.81818 -0.77536,-1.70171 -1.23129,-3.27249 -1.01317,-3.4906 0.21811,-0.21811 9.72045,1.84865 21.11632,4.5928 43.30039,10.42681 104.98642,22.04293 150.5702,28.35391 10.46596,1.44899 19.34557,2.63453 19.7325,2.63453 0.38692,0 -1.59941,3.39119 -4.41409,7.53598 l -5.11758,7.53597 -10.74257,1.45591 c -15.86156,2.14967 -37.55585,2.79397 -50.88387,1.5112 z"
       id="path4972"
       inkscape:connector-curvature="0" />
    <path
       style="fill:#f200d1;fill-opacity:1;stroke:#0f00b9;stroke-width:6.09248209;stroke-linejoin:round;stroke-miterlimit:4;stroke-dasharray:none;stroke-opacity:1"
       d="m 423.9078,393.37733 c -5.32447,-0.69271 -9.88256,-1.4458 -10.12909,-1.67353 -1.2919,-1.19339 40.24373,-57.01684 65.60541,-88.17298 l 14.81675,-18.20197 5.51255,24.75363 5.51255,24.75364 -3.07118,4.58048 c -10.59419,15.80065 -31.1686,35.616 -50.48373,48.62121 -11.16472,7.5174 -11.10758,7.50641 -27.76326,5.33952 z"
       id="path4974"
       inkscape:connector-curvature="0" />
    <path
       style="fill:#0c00f2;fill-opacity:1;stroke:#0f00b9;stroke-width:6.09248209;stroke-linejoin:round;stroke-miterlimit:4;stroke-dasharray:none;stroke-opacity:1"
       d="M 409.06383,86.480396 C 387.05603,82.35154 347.55816,75.335733 321.29078,70.889713 295.0234,66.443695 273.11055,62.456065 272.59554,62.028315 c -0.515,-0.42775 2.09883,-4.035954 5.80851,-8.018231 l 6.74489,-7.240504 11.61702,-1.762132 c 14.57313,-2.210531 52.27624,-2.193294 65.18439,0.0298 31.56686,5.436575 59.13645,15.510662 82.04872,29.981066 7.58892,4.792833 7.91125,5.218441 9.15682,12.090263 1.22957,6.783607 1.16326,7.116754 -1.39344,7.000692 -1.47643,-0.06702 -20.69082,-3.500018 -42.69862,-7.628875 z"
       id="path4976"
       inkscape:connector-curvature="0" />
    <path
       style="fill:#79beff;fill-opacity:1;stroke:#0f00b9;stroke-width:6.09248209;stroke-linejoin:round;stroke-miterlimit:4;stroke-dasharray:none;stroke-opacity:1"
       d="m 362.48294,328.74914 c -4.96626,-3.06189 -9.99475,-5.93747 -11.17445,-6.39016 -1.17968,-0.45269 -6.81084,0.3765 -12.51366,1.84264 l -10.36878,2.6657 -14.74683,-5.46483 c -13.83943,-5.12858 -14.92583,-5.33947 -17.65593,-3.42723 -2.84491,1.99265 -3.44703,1.51904 -27.29155,-21.46673 -33.45279,-32.24803 -61.00884,-58.00126 -69.03592,-64.51934 -6.50649,-5.28336 -7.68137,-7.56103 -6.06837,-11.76444 0.67862,-1.76844 1.34458,-1.71128 5.64932,0.48483 2.684,1.36928 5.22385,3.38562 5.64409,4.48075 1.07057,2.78986 3.38769,2.48753 8.72342,-1.13819 2.53289,-1.72114 6.58847,-3.31848 9.0124,-3.54965 3.91604,-0.37346 4.83866,-1.2523 8.27949,-7.88656 3.26252,-6.29047 4.31355,-7.35784 6.67403,-6.77775 7.08426,1.74097 8.63753,-2.73772 4.38783,-12.65188 -2.66416,-6.21522 -2.09154,-7.30978 3.82415,-7.30978 1.32685,0 5.3789,-0.63619 9.00457,-1.41375 5.93124,-1.27203 7.1351,-2.15998 12.00838,-8.85731 l 5.41628,-7.44355 6.42488,4.33958 c 8.6625,5.85093 11.76194,5.72667 13.64155,-0.54691 1.28883,-4.3017 2.61399,-5.47846 11.07319,-9.83308 8.9412,-4.60274 10.23431,-5.82831 18.60232,-17.63059 4.94623,-6.97619 9.42545,-12.93813 9.9538,-13.24874 0.52836,-0.31062 5.89789,1.36275 11.93228,3.71858 14.76889,5.76579 17.44366,5.7417 19.39625,-0.1747 l 1.52552,-4.62239 10.51429,0.85778 10.5143,0.85778 7.32277,-5.27085 c 4.02754,-2.89897 7.80307,-5.27247 8.39008,-5.27444 0.587,-0.002 3.59548,1.30494 6.6855,2.90426 l 5.6182,2.90784 -0.62471,10.97163 c -0.47607,8.36076 -1.96284,14.96473 -6.24784,27.75177 l -5.62313,16.78014 -0.0158,34.85107 c -0.0154,34.08616 -0.0765,34.90043 -2.78901,37.10058 -3.08565,2.5029 -4.97231,9.39034 -6.81988,24.89666 -0.72644,6.09688 -2.58843,13.2734 -4.52114,17.42553 -4.1691,8.95665 -4.19222,15.91434 -0.0865,26.01873 1.77365,4.36497 3.08056,8.04045 2.90425,8.16776 -0.54421,0.39298 -15.50682,3.20634 -17.05261,3.20634 -0.80165,0 -5.52085,-2.5052 -10.4871,-5.5671 z"
       id="path4978"
       inkscape:connector-curvature="0" />
    <path
       style="fill:#ffd700"
       d="m 134.5431,195.90574 c -1.34046,-4.39247 -2.43201,-8.67233 -2.42566,-9.51083 0.006,-0.8385 1.29012,-5.1511 2.85283,-9.58356 11.40784,-32.35723 33.64324,-62.97046 62.03612,-85.410032 13.77477,-10.886532 22.40984,-16.205124 26.28347,-16.188746 5.99384,0.02534 5.82327,0.835897 -2.30193,10.938657 -24.021,29.867331 -60.23106,81.071061 -79.22944,112.036301 -1.92496,3.13748 -3.78754,5.7045 -4.13905,5.7045 -0.35152,0 -1.73587,-3.59383 -3.07634,-7.98629 z"
       id="path3424"
       inkscape:connector-curvature="0" />
    <path
       style="fill:#ffd700"
       d="M 408.2266,83.317682 C 367.94684,75.908359 280.97397,60.595086 279.17193,60.595086 c -1.93664,0 -0.97623,-1.937435 3.1439,-6.342193 3.76992,-4.030342 4.71426,-4.539161 10.2681,-5.532505 9.4512,-1.690419 36.39456,-2.598314 53.10094,-1.789313 21.50715,1.041477 42.71602,5.988254 66.93195,15.611273 15.64991,6.219025 35.68161,17.541299 36.55931,20.663983 1.64523,5.853399 1.63791,7.508545 -0.0328,7.419592 -0.91844,-0.0489 -19.33095,-3.337604 -40.91677,-7.308241 z"
       id="path3426"
       inkscape:connector-curvature="0" />
    <path
       style="fill:#ffd700"
       d="m 505.99202,236.07004 c -2.18892,-7.33755 -23.55544,-112.6249 -22.97363,-113.20671 0.51774,-0.51775 9.53258,1.57459 11.77187,2.73224 2.61935,1.35414 13.67704,18.99466 20.15559,32.15456 8.45495,17.17457 17.16757,45.25423 15.75294,50.76967 -0.53153,2.07236 -9.09443,12.59263 -19.65274,24.14509 -3.67906,4.02548 -4.66983,4.69301 -5.05403,3.40515 z"
       id="path3428"
       inkscape:connector-curvature="0" />
    <path
       style="fill:#ffd700"
       d=""
       id="path3430"
       inkscape:connector-curvature="0" />
    <path
       style="fill:#ffd700"
       d="m 513.90028,289.12326 -4.76536,-21.5528 13.4362,-15.1584 13.4362,-15.1584 0.27816,5.37301 c 0.47224,9.12194 -3.16972,30.24266 -7.72152,44.77919 -2.21761,7.0821 -8.71587,23.27458 -9.33947,23.27227 -0.30736,-0.001 -2.70326,-9.70084 -5.32421,-21.55487 z"
       id="path3432"
       inkscape:connector-curvature="0" />
    <path
       style="fill:#ffd700"
       d="m 424.92209,390.15532 c -2.36338,-0.33016 -4.56922,-0.87246 -4.90187,-1.20511 -0.66517,-0.66517 2.94164,-5.9213 18.63588,-27.15772 19.82964,-26.83218 52.9508,-68.89173 53.67821,-68.16431 0.17629,0.17629 2.34548,9.32184 4.82042,20.32345 l 4.4999,20.00292 -2.18309,3.34894 c -9.98489,15.31725 -36.2002,39.85086 -54.10016,50.62965 -4.39821,2.64846 -5.84588,3.04975 -10.62222,2.94442 -3.04151,-0.0671 -7.46369,-0.39209 -9.82707,-0.72224 z"
       id="path3434"
       inkscape:connector-curvature="0" />
    <path
       style="fill:#ffd700"
       d="m 305.32678,420.71539 c -25.72193,-3.29174 -47.54583,-9.66746 -68.69142,-20.06778 -18.80081,-9.24706 -41.44935,-23.21324 -38.97938,-24.03656 0.43213,-0.14404 7.12029,1.20714 14.86258,3.00263 46.41076,10.76299 99.493,20.75357 145.48532,27.38172 9.02319,1.30037 16.49832,2.45682 16.61139,2.5699 0.11308,0.11308 -1.04756,2.13208 -2.57921,4.48667 -2.10271,3.23249 -3.48872,4.3988 -5.65876,4.76176 -16.48017,2.75643 -46.95395,3.70565 -61.05052,1.90166 z"
       id="path3436"
       inkscape:connector-curvature="0" />
    <path
       style="fill:#ffd700"
       d="m 156.95261,340.11475 c -7.59002,-9.58319 -18.65325,-30.15001 -24.17975,-44.95078 -3.20543,-8.58459 -7.94563,-25.78766 -7.94563,-28.83616 0,-2.17511 5.57668,-10.69189 6.40348,-9.77947 0.88951,0.98163 29.25181,86.32204 28.82904,86.74481 -0.18102,0.18102 -1.57923,-1.24926 -3.10714,-3.1784 z"
       id="path3438"
       inkscape:connector-curvature="0" />
    <path
       style="fill:#7fff00"
       d="m 121.25484,231.92041 c 0.0619,-2.92054 0.15839,-5.52782 0.21441,-5.79394 0.0848,-0.40285 0.30006,0.11001 1.28548,3.06282 0.65099,1.95068 1.18362,3.64981 1.18362,3.77584 0,0.25788 -2.35752,3.99433 -2.62424,4.15917 -0.12106,0.0748 -0.13857,-1.4625 -0.0593,-5.20389 z"
       id="path3440"
       inkscape:connector-curvature="0" />
    <path
       style="fill:#7fff00"
       d="m 364.23558,385.70795 c -57.15299,-8.00968 -128.5079,-21.94273 -172.5755,-33.69781 l -9.93721,-2.65076 -18.90425,-56.71309 -18.90425,-56.71308 13.90879,-22.2237 c 31.29002,-49.99573 60.02111,-90.24095 89.40385,-125.232889 l 8.45831,-10.07302 5.22549,0.848561 c 42.75478,6.942907 189.72393,33.126128 195.61555,34.849808 1.41425,0.41376 3.60731,9.00633 8.13558,31.87586 3.40968,17.22017 10.31356,50.57619 15.34197,74.12449 l 9.14256,42.8151 -9.63102,11.39766 c -24.2444,28.69166 -67.2162,84.96597 -80.4288,105.32664 -3.54965,5.47003 -7.03476,9.8867 -7.74469,9.81483 -0.70992,-0.0719 -12.9078,-1.75874 -27.10638,-3.7486 z m 19.82085,-47.57121 c 5.93195,-1.305 11.25645,-3.13496 11.8322,-4.06655 0.61497,-0.99502 -0.058,-4.39677 -1.63093,-8.24549 -1.47278,-3.60341 -3.27047,-9.25598 -3.99484,-12.56128 -1.18954,-5.42778 -0.93389,-6.92745 2.6405,-15.48936 2.53771,-6.07872 4.27769,-12.9529 4.84988,-19.16059 1.35337,-14.68235 2.80039,-19.05278 7.03292,-21.24152 4.75685,-2.45985 5.90876,-5.6035 3.16443,-8.63595 -1.95526,-2.16054 -2.09425,-5.5643 -1.40495,-34.40594 0.67811,-28.37266 1.07318,-32.79003 3.47833,-38.89195 4.62538,-11.73471 8.7662,-29.95197 9.25125,-40.70034 l 0.46391,-10.27996 -8.38432,-4.88671 c -4.61137,-2.68769 -9.13789,-4.88671 -10.05893,-4.88671 -0.92104,0 -4.93272,2.45989 -8.91484,5.46642 l -7.24022,5.46643 -12.2453,-0.41221 c -13.03874,-0.43891 -14.40912,0.12416 -14.44869,5.93681 -0.0103,1.59734 -0.21017,2.90426 -0.4429,2.90426 -0.23273,0 -5.60161,-2.03298 -11.93084,-4.51774 -6.32924,-2.48475 -12.77871,-4.51773 -14.33215,-4.51773 -2.04164,0 -4.82473,2.77257 -10.04152,10.00355 -12.39183,17.17627 -13.51961,18.31424 -22.7641,22.96969 -6.20847,3.12654 -9.47915,5.62938 -10.51725,8.04818 -0.82864,1.93077 -1.65736,3.73044 -1.84158,3.99925 -0.18422,0.26881 -3.16693,-1.32853 -6.62825,-3.54965 -3.4613,-2.22112 -7.2401,-4.03839 -8.39732,-4.03839 -1.64986,0 -7.06378,6.2011 -13.42386,15.37567 -0.20272,0.29243 -5.38994,1.27412 -11.52716,2.18152 -6.13721,0.9074 -11.77397,2.26522 -12.52612,3.01738 -0.96288,0.96288 -0.52835,3.69994 1.46849,9.24971 2.37861,6.61084 2.50917,7.75673 0.80947,7.10449 -3.46616,-1.33009 -6.32753,1.31183 -9.36936,8.65079 -2.4002,5.79091 -3.38681,6.94636 -5.46688,6.4024 -1.50619,-0.39387 -4.69596,0.76425 -7.84546,2.84848 -3.04968,2.01819 -5.64812,2.97747 -6.10848,2.2551 -1.61938,-2.54103 -9.93906,-6.7356 -13.36894,-6.74029 -2.84151,-0.004 -3.91437,0.90952 -5.48582,4.67053 -3.26512,7.81454 -2.58443,11.06741 3.25513,15.55553 7.83465,6.02148 31.93774,28.39815 65.78429,61.07236 16.68333,16.10548 31.63432,29.97557 33.22444,30.82242 2.33904,1.24572 3.48156,1.15285 5.98337,-0.4864 2.91267,-1.90846 3.90488,-1.71713 17.0831,3.29416 l 13.99082,5.32029 10.60276,-2.84935 10.60277,-2.84936 10.72262,6.61612 c 5.89745,3.63886 11.3059,6.60228 12.01878,6.58539 0.71289,-0.0169 6.14959,-1.09844 12.08155,-2.40346 z"
       id="path3442"
       inkscape:connector-curvature="0" />
    <path
       style="fill:#7fff00"
       d="m 362.29941,324.3611 c -10.53293,-6.36973 -11.69236,-6.50017 -27.11413,-3.0502 -6.8165,1.52491 -7.58159,1.41196 -18.7163,-2.76281 -7.16279,-2.68557 -14.0062,-4.36907 -17.86736,-4.39544 l -6.25807,-0.0427 -24.72065,-23.69884 C 254.02654,277.37674 234.36022,258.822 223.91996,249.17838 l -18.98229,-17.53388 4.47324,-1.53783 c 2.46029,-0.84581 5.27565,-2.20376 6.25636,-3.01768 0.98071,-0.81392 4.3151,-2.20611 7.40975,-3.09377 4.49474,-1.28925 6.4803,-2.8829 9.87016,-7.92196 2.95888,-4.39842 5.23502,-6.41375 7.51875,-6.65724 5.65043,-0.60243 7.30049,-2.97396 6.60298,-9.49005 -0.34492,-3.22223 -1.01871,-6.79345 -1.4973,-7.93605 -0.71255,-1.70118 0.60345,-2.36497 7.2657,-3.66481 7.16648,-1.39821 8.88216,-2.35845 14.39947,-8.05917 l 6.2636,-6.47182 6.39616,3.48122 c 8.15738,4.4398 11.76459,3.68024 15.28398,-3.21834 1.76414,-3.458 4.39341,-6.01844 8.08307,-7.87146 9.03858,-4.53937 13.4868,-8.5348 21.12061,-18.97074 3.99977,-5.46796 7.699,-10.41496 8.22052,-10.99332 0.5215,-0.57837 6.23804,0.79563 12.70342,3.05333 13.43575,4.69174 17.22848,4.42514 20.253,-1.42362 l 2.0179,-3.90219 9.52763,0.86337 9.52765,0.86337 7.40241,-5.25132 c 6.99382,-4.96147 7.62245,-5.15995 11.38927,-3.596 l 3.98689,1.65532 -0.29972,9.78129 c -0.22909,7.4761 -1.67405,14.06999 -6.13121,27.97888 l -5.83148,18.19757 0,32.93968 c 0,31.33768 -0.13058,33.1163 -2.68487,36.57114 -1.79546,2.42852 -3.50986,8.50426 -5.17538,18.34136 -1.36979,8.09044 -3.93714,18.92619 -5.70521,24.07946 -3.84867,11.2174 -3.95639,14.47832 -0.812,24.58123 l 2.40267,7.71982 -4.66154,0.77105 c -7.45047,1.23235 -8.0437,1.06677 -18.21474,-5.08412 z"
       id="path3444"
       inkscape:connector-curvature="0" />
    <path
       style="fill:#5cd8fc"
       d="M 366.67944,385.63041 C 309.44898,377.07938 253.59615,366.46465 209.55235,355.76867 l -27.40367,-6.65495 -18.85665,-56.57028 -18.85665,-56.57027 11.95672,-19.01673 c 29.54103,-46.98393 61.85284,-92.63195 88.01368,-124.339974 l 11.28497,-13.677856 14.51208,2.418525 c 30.7064,5.117409 147.12177,25.720155 166.07793,29.391825 10.94845,2.12065 20.32481,4.53293 20.83636,5.36063 0.99264,1.60612 4.00647,15.44132 17.40394,79.89395 4.64844,22.36277 9.68994,46.53671 11.20333,53.71986 l 2.75161,13.06029 -14.80901,17.91843 c -23.31608,28.21178 -61.01643,77.6419 -74.82583,98.10653 -7.50121,11.11632 -5.81407,10.75846 -32.16172,6.82176 z m 22.44494,-48.3002 c 4.73042,-1.37517 7.243,-2.79187 7.243,-4.08393 0,-1.08807 -1.54516,-6.9342 -3.43369,-12.99138 l -3.4337,-11.01305 4.06439,-12.40993 c 2.23541,-6.82547 4.65113,-16.94837 5.36826,-22.49534 1.4841,-11.47951 2.63286,-14.20247 7.27479,-17.24398 2.7922,-1.82952 3.15538,-2.7656 2.37885,-6.1312 -3.16748,-13.72846 -1.30939,-68.19895 2.6432,-77.48583 3.59799,-8.45375 8.34778,-31.75705 8.36025,-41.01684 l 0.0117,-8.68666 -6.77659,-3.91722 c -10.73702,-6.20654 -11.82319,-6.21598 -20.38612,-0.17723 -7.55881,5.33061 -7.56766,5.33301 -19.62954,5.33301 -12.44733,0 -15.16519,0.97159 -15.16519,5.42128 0,1.27787 -0.2737,2.32341 -0.60823,2.32341 -0.33452,0 -5.38293,-1.74256 -11.21869,-3.87235 -5.83576,-2.12978 -11.89124,-3.87234 -13.45664,-3.87234 -3.08374,0 -6.31349,3.32886 -17.14556,17.67168 -5.14116,6.80744 -9.07932,10.43499 -15.23967,14.0377 -4.56886,2.67197 -9.63541,6.55548 -11.25898,8.63003 l -2.95196,3.77191 -6.60611,-3.66204 c -7.78516,-4.31564 -8.70574,-3.99814 -16.3865,5.65145 -4.40533,5.53455 -6.01565,6.62135 -10.97163,7.40473 -3.19469,0.50497 -8.63602,1.51436 -12.09186,2.24309 l -6.28334,1.32495 0.7152,5.34623 c 0.39335,2.94043 1.07066,6.50793 1.50512,7.92779 0.57942,1.89358 -6.2e-4,2.92555 -2.17653,3.87234 -1.63156,0.70993 -4.60067,4.34025 -6.59804,8.06738 -2.58326,4.82044 -4.40229,6.77659 -6.30154,6.77659 -1.46849,0 -4.55797,1.16684 -6.86551,2.59299 l -4.19553,2.59298 -5.63767,-3.22283 c -9.96866,-5.69867 -15.31339,-3.60234 -17.39869,6.82419 -0.94356,4.7178 -1.35338,4.25778 26.66961,29.93608 8.90966,8.16418 29.23944,27.26733 45.1773,42.45143 15.93786,15.1841 30.25612,28.44645 31.81836,29.47187 2.30685,1.5142 3.64045,1.57754 7.09929,0.33719 3.80877,-1.36582 5.55479,-1.03704 16.52127,3.1111 6.74433,2.55109 13.43669,4.64249 14.87191,4.64756 1.43523,0.005 6.63847,-1.10798 11.56277,-2.47344 l 8.95326,-2.48268 10.38049,6.45066 c 11.55472,7.18034 14.31457,7.46181 29.5985,3.01865 z"
       id="path3446"
       inkscape:connector-curvature="0" />
    <path
       style="fill:#7cfc00;fill-opacity:1;stroke:#000000;stroke-width:3.87234044;stroke-linejoin:round;stroke-miterlimit:4;stroke-dasharray:none;stroke-opacity:1"
       d="m 306.17921,420.70997 c -11.11646,-1.25195 -36.76393,-7.11344 -47.24456,-10.7973 -6.31726,-2.22047 -18.29317,-7.49929 -26.61313,-11.7307 -15.15165,-7.70591 -35.32576,-20.10893 -34.32916,-21.10552 0.29179,-0.2918 8.05374,1.20617 17.24876,3.32882 40.78468,9.41503 92.39193,19.17151 133.53384,25.2449 13.13368,1.93881 24.31184,3.88504 24.84034,4.32497 0.52849,0.43992 -0.63321,2.64263 -2.58156,4.89491 -3.42899,3.96387 -4.01798,4.13763 -18.38644,5.42405 -14.26545,1.27719 -37.0125,1.48078 -46.46809,0.41587 z"
       id="path4160"
       inkscape:connector-curvature="0" />
    <path
       style="fill:#7cfc00;fill-opacity:1;stroke:#000000;stroke-width:3.87234044;stroke-linejoin:round;stroke-miterlimit:4;stroke-dasharray:none;stroke-opacity:1"
       d="m 425.25368,389.71944 c -2.30727,-0.28632 -4.19504,-1.01417 -4.19504,-1.61743 0,-2.08971 34.29399,-48.08095 58.54409,-78.51274 7.71738,-9.68465 11.92831,-14.02368 12.52671,-12.9078 0.49578,0.92451 2.73713,9.7295 4.98078,19.56664 l 4.07936,17.8857 -5.4993,7.28451 c -11.77929,15.60313 -42.52672,42.83907 -53.615,47.49194 -4.03032,1.69121 -8.12643,1.88825 -16.8216,0.80918 z"
       id="path4162"
       inkscape:connector-curvature="0" />
    <path
       style="fill:#7cfc00;fill-opacity:1;stroke:#000000;stroke-width:3.87234044;stroke-linejoin:round;stroke-miterlimit:4;stroke-dasharray:none;stroke-opacity:1"
       d="m 518.54519,306.42978 c -0.868,-2.63384 -8.42272,-36.71898 -8.42272,-38.00133 0,-0.64852 5.89899,-7.81412 13.10887,-15.92354 l 13.10886,-14.74441 -0.89722,11.0578 c -1.1663,14.37397 -5.91126,35.1854 -11.07524,48.57602 -4.17199,10.81833 -4.87532,11.90976 -5.82255,9.03546 z"
       id="path4164"
       inkscape:connector-curvature="0" />
    <path
       style="fill:#7cfc00;fill-opacity:1;stroke:#000000;stroke-width:3.87234044;stroke-linejoin:round;stroke-miterlimit:4;stroke-dasharray:none;stroke-opacity:1"
       d="m 504.43502,226.86938 c -4.01432,-17.64963 -20.12815,-98.60201 -20.12815,-101.11946 0,-4.15652 7.57484,-1.73532 12.9078,4.1258 10.49502,11.53442 25.86403,44.40538 31.01781,66.34035 l 2.68846,11.44231 -3.2755,4.69244 c -1.80153,2.58084 -7.27301,9.04823 -12.15885,14.37197 l -8.88335,9.67953 -2.16822,-9.53294 z"
       id="path4166"
       inkscape:connector-curvature="0" />
    <path
       style="fill:#7cfc00;fill-opacity:1;stroke:#000000;stroke-width:3.87234044;stroke-linejoin:round;stroke-miterlimit:4;stroke-dasharray:none;stroke-opacity:1"
       d="m 400.40616,81.448147 c -24.49255,-4.477718 -61.66702,-11.140384 -82.60993,-14.805926 -20.94291,-3.665544 -38.32609,-6.908036 -38.6293,-7.205541 -1.36264,-1.337001 7.39621,-8.450647 12.10683,-9.832768 3.39594,-0.996385 16.29336,-1.540707 36.84871,-1.55516 35.48246,-0.02495 45.18556,1.37687 71.18364,10.283981 16.46639,5.641494 40.932,17.539912 46.21696,22.476805 4.37522,4.087054 5.33079,9.188416 1.67387,8.935894 -1.24237,-0.08579 -22.29823,-3.819569 -46.79078,-8.297285 z"
       id="path4168"
       inkscape:connector-curvature="0" />
    <path
       style="fill:#7cfc00;fill-opacity:1;stroke:#000000;stroke-width:3.87234044;stroke-linejoin:round;stroke-miterlimit:4;stroke-dasharray:none;stroke-opacity:1"
       d="m 135.27218,196.16084 c -2.80166,-8.22241 -2.60274,-11.81578 1.21566,-21.96033 8.69588,-23.10284 24.01545,-46.72193 42.54953,-65.60116 19.78131,-20.14969 47.11347,-38.405646 47.11347,-31.468476 0,0.785422 -5.73253,8.772125 -12.73895,17.748227 -17.68598,22.657939 -39.95022,53.884799 -59.05201,82.823749 -8.89317,13.47304 -16.36308,24.49644 -16.5998,24.49644 -0.23672,0 -1.35628,-2.7173 -2.4879,-6.03845 z"
       id="path4170"
       inkscape:connector-curvature="0" />
    <path
       style="fill:#1e90ff;fill-opacity:1;stroke:#000000;stroke-width:3.87234044;stroke-linejoin:round;stroke-miterlimit:4;stroke-dasharray:none;stroke-opacity:1"
       d="m 152.0408,332.0073 c -10.4961,-16.40805 -21.12102,-41.08026 -25.28052,-58.7041 -1.4706,-6.23092 -1.39803,-7.45495 0.66961,-11.29432 1.27543,-2.36833 2.67015,-4.30605 3.09939,-4.30605 1.08969,0 27.61999,80.04885 26.80156,80.86729 -0.36624,0.36624 -2.74676,-2.58703 -5.29004,-6.56282 z"
       id="path4172"
       inkscape:connector-curvature="0" />
    <path
       style="fill:#6495ed;fill-opacity:1;stroke:#000000;stroke-width:3.87234044;stroke-linejoin:round;stroke-miterlimit:4;stroke-dasharray:none;stroke-opacity:0"
       d="m 369.42744,385.42531 c -56.58706,-8.47809 -113.905,-19.34505 -160.16916,-30.36662 l -26.5734,-6.33062 -18.81338,-56.47257 -18.81337,-56.47257 12.70789,-20.0083 c 18.73758,-29.50195 43.47728,-65.74459 60.37071,-88.44059 14.68092,-19.72355 35.51436,-45.761405 37.69103,-47.106664 1.21027,-0.747986 15.12639,1.574805 108.43656,18.099554 65.1343,11.53495 83.78126,15.1296 89.20816,17.19703 4.17539,1.59065 3.06469,-2.75669 20.00129,78.28526 7.41824,35.49645 13.75381,65.41028 14.07905,66.47517 0.348,1.13941 -6.74914,10.96611 -17.24646,23.87944 -23.3,28.66263 -47.33068,59.9346 -64.1034,83.41999 -12.04763,16.8693 -16.0534,20.94725 -19.99538,20.35571 -0.35496,-0.0533 -7.90603,-1.18466 -16.78014,-2.51422 z m 19.3523,-47.49326 c 4.70026,-1.47375 7.24112,-3.00827 7.53858,-4.55284 0.24678,-1.28142 -1.08866,-7.26067 -2.96765,-13.28723 l -3.41634,-10.95738 3.30057,-9.9107 c 1.81531,-5.45087 4.45461,-15.96714 5.86511,-23.36948 2.00608,-10.52793 3.28234,-14.20799 5.86066,-16.89919 l 3.29611,-3.4404 0.38265,-36.01593 c 0.30849,-29.03613 0.79819,-37.39175 2.52686,-43.11522 5.62884,-18.6367 7.69335,-29.53847 7.82206,-41.30496 l 0.13412,-12.26241 -8.61766,-4.47946 c -9.65458,-5.01844 -7.86084,-5.26975 -22.88677,3.20651 -4.72697,2.66652 -7.41091,3.20912 -15.87369,3.20912 -9.30747,0 -10.45251,0.2888 -13.29177,3.3524 l -3.1069,3.35241 -10.06636,-3.35241 c -5.5365,-1.84382 -11.29731,-3.3524 -12.80182,-3.3524 -2.79207,0 -8.37488,5.50748 -17.90822,17.66658 -2.83972,3.62186 -8.32045,8.82483 -12.17939,11.56215 -3.85895,2.73732 -9.37704,7.05618 -12.26241,9.59747 l -5.24614,4.62052 -5.16312,-2.98582 c -2.83972,-1.64219 -6.0676,-2.99537 -7.17309,-3.00704 -1.10547,-0.0116 -5.25966,3.33839 -9.23154,7.44461 -7.07511,7.31442 -7.45019,7.50992 -18.49281,9.63871 -6.19918,1.19507 -11.42433,2.33704 -11.61145,2.5377 -0.18711,0.20066 0.20121,3.78121 0.86294,7.95678 1.08313,6.8346 0.95269,7.76737 -1.30754,9.3505 -1.38088,0.96721 -4.29982,4.66626 -6.48653,8.22011 -2.18671,3.55386 -4.83278,6.46156 -5.88015,6.46156 -1.04737,0 -3.96547,0.9829 -6.48467,2.18422 -4.41128,2.1036 -4.79536,2.07977 -10.40456,-0.64539 -3.20331,-1.55628 -7.17077,-2.82961 -8.81657,-2.82961 -4.08534,0 -7.35161,3.97275 -8.14222,9.90335 -0.64012,4.80173 -0.3377,5.25126 10.75832,15.9913 6.27933,6.07787 15.77334,15.10308 21.09781,20.05601 5.32447,4.95294 20.13617,18.84189 32.91489,30.86434 44.59976,41.96021 38.52438,37.12873 45.51262,36.19417 4.9857,-0.66675 8.15005,-0.0696 17.09022,3.22499 12.58937,4.6394 15.63059,4.85833 26.88336,1.93524 l 8.16705,-2.12152 9.86309,5.86967 c 11.2715,6.70785 17.39907,7.42186 29.94235,3.48897 z"
       id="path4176"
       inkscape:connector-curvature="0" />
  </g>
</svg>
