<?xml version="1.0" encoding="UTF-8" standalone="no"?>
<svg
   xmlns:dc="http://purl.org/dc/elements/1.1/"
   xmlns:cc="http://creativecommons.org/ns#"
   xmlns:rdf="http://www.w3.org/1999/02/22-rdf-syntax-ns#"
   xmlns:svg="http://www.w3.org/2000/svg"
   xmlns="http://www.w3.org/2000/svg"
   xmlns:sodipodi="http://sodipodi.sourceforge.net/DTD/sodipodi-0.dtd"
   xmlns:inkscape="http://www.inkscape.org/namespaces/inkscape"
   version="1.0"
   width="900.000000pt"
   height="900.000000pt"
   viewBox="0 0 900.000000 900.000000"
   preserveAspectRatio="xMidYMid meet"
   id="svg2"
   inkscape:version="0.91 r13725"
   sodipodi:docname="twiter.svg">
  <defs
     id="defs12" />
  <sodipodi:namedview
     pagecolor="#ffffff"
     bordercolor="#666666"
     borderopacity="1"
     objecttolerance="10"
     gridtolerance="10"
     guidetolerance="10"
     inkscape:pageopacity="0"
     inkscape:pageshadow="2"
     inkscape:window-width="1280"
     inkscape:window-height="658"
     id="namedview10"
     showgrid="false"
     inkscape:zoom="0.20977778"
     inkscape:cx="562.5"
     inkscape:cy="557.73305"
     inkscape:window-x="-8"
     inkscape:window-y="-8"
     inkscape:window-maximized="1"
     inkscape:current-layer="svg2" />
  <metadata
     id="metadata4">
Created by potrace 1.10, written by Peter Selinger 2001-2011
<rdf:RDF>
  <cc:Work
     rdf:about="">
    <dc:format>image/svg+xml</dc:format>
    <dc:type
       rdf:resource="http://purl.org/dc/dcmitype/StillImage" />
  </cc:Work>
</rdf:RDF>
</metadata>
  <g
     transform="matrix(0.1,0,0,-0.1,-106.77966,900)"
     id="g6"
     style="fill:#ffffff;stroke:none">
    <path
       d="m 2078,8979 c -11,-11 -31,-19 -50,-19 -30,0 -134,-28 -183,-49 -75,-32 -192,-95 -215,-116 -9,-8 -20,-15 -24,-15 -20,0 -193,-172 -247,-245 -55,-75 -60,-84 -102,-170 -41,-83 -60,-132 -77,-200 -39,-155 -39,-161 -40,-2525 0,-2301 3,-2565 36,-2743 8,-42 14,-99 14,-126 0,-27 7,-65 15,-84 8,-20 15,-51 15,-68 0,-17 7,-52 15,-78 30,-97 45,-154 45,-175 0,-11 7,-30 15,-40 8,-11 15,-28 15,-38 0,-9 6,-32 14,-50 8,-18 21,-52 30,-75 9,-24 23,-62 32,-85 19,-48 100,-225 115,-248 5,-8 11,-21 14,-28 14,-36 17,-40 66,-117 14,-22 29,-47 33,-55 47,-100 267,-387 429,-562 75,-80 141,-148 146,-150 6,-1 43,-35 83,-74 81,-78 424,-344 445,-344 5,0 38,-20 152,-92 23,-14 84,-45 296,-149 33,-16 65,-29 72,-29 6,0 24,-6 40,-14 30,-15 80,-33 128,-46 17,-5 61,-20 99,-34 38,-14 83,-26 100,-26 17,-1 42,-7 56,-15 14,-8 39,-14 55,-15 17,0 50,-6 75,-14 42,-13 84,-20 295,-49 113,-16 2798,-15 2875,0 60,12 107,27 157,49 17,8 38,14 46,14 8,0 20,7 27,15 7,8 19,15 26,15 12,0 61,31 174,110 54,38 182,168 231,235 53,73 62,86 94,150 14,28 30,57 34,65 41,75 90,316 90,445 0,129 -49,370 -90,445 -4,8 -20,38 -34,65 -75,147 -244,340 -360,413 -22,13 -59,38 -83,53 -24,16 -49,29 -56,29 -8,0 -19,7 -26,15 -7,8 -19,15 -28,15 -8,0 -45,12 -81,26 -36,15 -88,30 -116,34 -27,5 -68,13 -90,19 -27,7 -445,11 -1286,11 -1074,0 -1253,2 -1295,15 -27,8 -60,15 -74,15 -14,0 -38,7 -54,15 -15,8 -36,15 -45,15 -10,0 -26,7 -37,15 -10,8 -29,15 -41,15 -12,0 -24,4 -27,9 -4,5 -27,19 -52,31 -57,28 -184,122 -244,181 -47,46 -151,172 -160,192 -3,7 -16,30 -30,52 -14,22 -34,60 -44,85 -10,25 -22,53 -28,64 -15,29 -38,106 -48,161 -5,28 -13,70 -19,95 -6,27 -10,226 -11,486 0,352 3,444 13,452 9,8 500,12 1683,14 1564,3 1671,4 1708,21 21,9 48,17 61,17 26,0 149,53 220,94 80,47 154,108 235,193 107,113 122,134 183,258 54,112 67,144 67,169 0,13 7,40 16,61 13,31 15,74 12,241 -2,145 -7,207 -15,216 -7,6 -13,28 -13,48 0,20 -7,45 -15,56 -8,10 -15,26 -15,34 0,18 -55,127 -95,190 -83,131 -282,309 -415,372 -97,45 -160,67 -222,78 -27,5 -54,12 -60,17 -7,4 -762,10 -1678,13 l -1665,5 -5,915 c -4,706 -8,920 -17,937 -7,12 -13,34 -13,50 0,15 -7,41 -15,57 -8,15 -15,35 -15,42 0,8 -13,43 -30,77 -16,35 -30,67 -30,70 0,12 -100,153 -153,216 -84,99 -263,241 -341,271 -13,5 -27,14 -31,19 -3,6 -15,11 -27,11 -11,0 -32,6 -46,14 -45,23 -125,46 -159,46 -20,0 -41,8 -53,20 -18,18 -33,20 -187,19 -152,-1 -170,-2 -185,-20 z"
       id="path8"
       inkscape:connector-curvature="0" />
  </g>
</svg>
